<svg width="391" height="378" viewBox="0 0 391 378" fill="none" xmlns="http://www.w3.org/2000/svg">
<g filter="url(#filter0_d_5_61)">
<rect x="59.3429" y="24.727" width="304.413" height="288.498" rx="11.5" transform="rotate(9.5 59.3429 24.727)" fill="white" stroke="black" stroke-width="3"/>
<line x1="130.82" y1="35.1672" x2="82.7087" y2="322.668" stroke="black" stroke-width="3"/>
<line x1="208.352" y1="48.1418" x2="160.241" y2="335.642" stroke="black" stroke-width="3"/>
<line x1="286.516" y1="61.2218" x2="238.404" y2="348.722" stroke="black" stroke-width="3"/>
<line y1="-1.5" x2="306.785" y2="-1.5" transform="matrix(0.985861 0.167565 -0.166713 0.986005 46.5515 95.9492)" stroke="black" stroke-width="3"/>
<line y1="-1.5" x2="306.785" y2="-1.5" transform="matrix(0.985861 0.167565 -0.166713 0.986005 34.8804 165.693)" stroke="black" stroke-width="3"/>
<line y1="-1.5" x2="306.785" y2="-1.5" transform="matrix(0.985861 0.167565 -0.166713 0.986005 21.2641 247.061)" stroke="black" stroke-width="3"/>
<path d="M74.3619 89.4722C74.5098 88.5885 75.2998 87.7696 76.7319 87.0156C82.2898 84.1699 86.3975 81.5926 89.0551 79.2835C90.5151 78.0232 91.3838 76.5646 91.661 74.9076C91.9429 73.223 91.6723 71.7867 90.8491 70.5985C90.0305 69.3827 88.8066 68.6385 87.1772 68.3658C85.5755 68.0978 84.1184 68.4076 82.8059 69.2951C81.4934 70.1827 80.7378 71.2202 80.5391 72.4077C80.4883 72.7114 80.3178 72.9668 80.0276 73.1738C79.7651 73.3853 79.482 73.4657 79.1782 73.4149C78.902 73.3687 78.6858 73.2189 78.5295 72.9656C78.3777 72.6847 78.3296 72.3786 78.3851 72.0472C78.7086 70.1141 80.0745 68.4832 82.4828 67.1544C84.8911 65.8257 87.1723 65.3416 89.3264 65.702C91.508 66.0671 93.1186 66.9612 94.1579 68.3842C95.2249 69.8119 95.6152 71.3819 95.3286 73.0941C94.8203 76.1318 92.899 78.8764 89.5647 81.3277C87.681 82.7442 85.3831 84.2617 82.6707 85.8803C79.9906 87.4758 78.5262 88.3379 78.2776 88.4667C81.3798 88.929 84.2727 89.2002 86.9563 89.2802C89.6446 89.3326 91.1682 89.3889 91.5272 89.4489C91.9138 89.5136 92.298 89.7625 92.6798 90.1954C93.0662 90.6007 93.2062 91.121 93.0999 91.7562C92.9983 92.3637 92.7057 92.84 92.2221 93.1849C91.7432 93.5022 91.2275 93.6146 90.6752 93.5222C90.1229 93.4298 89.0804 93.2127 87.5478 92.8711C86.0152 92.5294 84.5032 92.2338 83.0119 91.9843C81.5207 91.7347 80.0501 91.5312 78.6002 91.3738C77.1779 91.2209 76.2597 91.1099 75.8454 91.0405C75.4312 90.9712 75.0654 90.7822 74.7479 90.4736C74.4305 90.165 74.3019 89.8312 74.3619 89.4722Z" fill="#EA2222"/>
<path d="M242.731 95.7594C241.839 94.4745 240.606 93.7003 239.032 93.4369C237.458 93.1735 236.026 93.5017 234.736 94.4215C233.479 95.3183 232.716 96.5675 232.448 98.1693C232.185 99.7434 232.504 101.23 233.405 102.63C234.306 104.03 235.53 104.86 237.077 105.118C238.623 105.377 240.051 104.992 241.359 103.961C242.667 102.931 243.452 101.629 243.716 100.055C243.984 98.453 243.655 97.0212 242.731 95.7594ZM228.239 114.669C228.332 114.117 228.604 113.679 229.055 113.357C229.506 113.036 229.911 112.905 230.27 112.965C230.657 113.029 231.124 113.207 231.672 113.497C232.219 113.788 232.825 113.988 233.487 114.099C235.559 114.446 237.654 113.462 239.773 111.148C241.919 108.839 243.279 106.398 243.851 103.825C243.063 105.141 241.741 106.169 239.886 106.909C238.03 107.649 236.219 107.871 234.451 107.575C232.712 107.284 231.322 106.427 230.283 105.004C229.275 103.557 228.922 101.937 229.222 100.142C229.726 97.1318 231.215 94.769 233.688 93.0536C236.161 91.3383 238.806 90.7163 241.622 91.1877C243.776 91.5481 245.35 92.6631 246.343 94.5327C247.368 96.3792 247.659 98.6281 247.216 101.279C246.777 103.903 245.675 106.5 243.91 109.073C242.177 111.622 240.047 113.664 237.519 115.2C235.023 116.713 232.615 117.275 230.296 116.887C229.55 116.762 228.998 116.499 228.639 116.098C228.28 115.698 228.147 115.221 228.239 114.669Z" fill="#EA2222"/>
<path d="M216.032 241.452C217.523 241.702 218.782 242.324 219.808 243.319C220.866 244.291 221.268 245.537 221.014 247.055C220.584 249.624 218.872 251.538 215.88 252.797C217.61 253.824 218.905 254.907 219.765 256.045C220.653 257.187 220.948 258.642 220.653 260.409C220.223 262.977 218.852 264.976 216.54 266.407C214.256 267.841 211.637 268.311 208.682 267.817C206.611 267.47 204.954 266.597 203.712 265.197C202.475 263.769 202.016 262.102 202.335 260.197C202.658 258.264 203.416 256.786 204.609 255.765C205.802 254.744 207.352 253.882 209.258 253.179C208.112 252.391 207.261 251.539 206.705 250.623C206.153 249.679 205.983 248.571 206.196 247.301C206.552 245.175 207.727 243.583 209.72 242.525C211.747 241.445 213.85 241.087 216.032 241.452ZM217.731 261.325C217.847 260.635 217.788 259.972 217.553 259.337C217.346 258.706 217.091 258.195 216.788 257.803C216.484 257.412 215.948 256.967 215.18 256.47C214.214 255.797 212.941 255.087 211.363 254.341C209.793 254.901 208.547 255.558 207.626 256.313C206.737 257.044 206.17 258.142 205.925 259.605C205.68 261.069 206.08 262.413 207.124 263.638C208.2 264.841 209.512 265.571 211.058 265.83C212.633 266.093 214.074 265.795 215.381 264.935C216.694 264.047 217.477 262.844 217.731 261.325ZM218.058 248.179C218.279 246.853 218.015 245.801 217.266 245.023C216.52 244.217 215.54 243.712 214.325 243.509C213.138 243.31 212.058 243.484 211.087 244.032C210.115 244.579 209.553 245.308 209.4 246.219C209.248 247.131 209.385 247.92 209.813 248.588C210.268 249.26 210.774 249.799 211.331 250.205C211.92 250.587 212.76 251.082 213.85 251.691C215.089 251.245 216.065 250.755 216.779 250.222C217.493 249.688 217.919 249.007 218.058 248.179Z" fill="#EA2222"/>
<path d="M123.174 293.72C123.174 293.72 123.075 294.228 122.877 295.245C122.803 295.687 122.657 296.557 122.44 297.855C122.227 299.126 122.121 300.101 122.12 300.783C123.41 300.033 124.924 299.804 126.664 300.095C128.432 300.391 129.853 301.31 130.929 302.853C132.038 304.373 132.435 306.072 132.121 307.949C131.631 310.877 129.924 313.274 126.999 315.141C124.103 317.012 121.011 317.673 117.725 317.123C116.648 316.943 115.797 316.602 115.171 316.1C114.578 315.575 114.341 314.953 114.461 314.235C114.581 313.517 114.915 312.962 115.463 312.572C116.011 312.181 116.562 312.031 117.114 312.124C117.666 312.216 118.352 312.615 119.171 313.32C120.022 314.002 120.82 314.405 121.566 314.53C123.388 314.835 124.991 314.507 126.372 313.545C127.781 312.589 128.625 311.282 128.902 309.625C129.184 307.941 128.828 306.419 127.835 305.06C126.846 303.674 125.523 302.842 123.866 302.565C123.01 302.422 122.145 302.504 121.27 302.812C120.395 303.12 119.819 303.251 119.543 303.204C119.295 303.163 119.076 303.027 118.888 302.797C118.731 302.543 118.678 302.265 118.729 301.961L119.699 296.928C119.875 295.879 119.986 294.79 120.033 293.662C120.107 292.539 120.174 291.798 120.235 291.439C120.299 291.053 120.548 290.754 120.981 290.542C121.446 290.308 121.941 290.234 122.466 290.322L127.188 291.368L132.034 291.923C132.476 291.997 132.838 292.214 133.118 292.573C133.431 292.909 133.546 293.326 133.463 293.823C133.379 294.32 133.133 294.691 132.723 294.934C132.345 295.155 131.936 295.228 131.494 295.154L126.73 294.102C125.957 293.972 124.772 293.845 123.174 293.72Z" fill="#EA2222"/>
<path d="M76.6676 214.841L74.5886 226.247C74.1773 228.705 73.8259 231.059 73.5345 233.31C73.243 235.56 73.0464 236.989 72.9447 237.597C72.8477 238.177 72.5412 238.736 72.0253 239.274C71.5416 239.79 70.9684 239.992 70.3056 239.881C69.6428 239.77 69.1413 239.459 68.801 238.948C68.4653 238.409 68.346 237.849 68.443 237.27C68.5401 236.69 68.8466 236.045 69.3627 235.337C69.9063 234.633 70.3165 233.878 70.5932 233.073C70.8745 232.24 71.378 229.656 72.1035 225.32C72.8291 220.984 73.2453 217.988 73.3523 216.331C73.3618 215.935 73.1456 215.7 72.7037 215.626C72.2895 215.557 71.6519 215.634 70.7909 215.859C69.9346 216.057 69.2993 216.121 68.8851 216.052C68.4709 215.982 68.0982 215.749 67.767 215.353C67.4634 214.962 67.3579 214.49 67.4503 213.938C67.5427 213.385 67.81 212.976 68.2521 212.709C68.7218 212.447 69.2051 212.358 69.7022 212.441L75.2946 213.121C76.3717 213.301 76.8293 213.875 76.6676 214.841Z" fill="#EA2222"/>
<path d="M144.58 141.325L151.332 142.199C152.465 142.388 152.941 143.022 152.76 144.099C152.682 144.568 152.293 145.199 151.592 145.99C150.92 146.786 149.796 148.074 148.22 149.854C146.649 151.607 145.115 153.48 143.618 155.472C141.305 158.605 139.519 161.983 138.26 165.604C138.094 166.088 137.811 166.509 137.41 166.867C137.014 167.199 136.567 167.323 136.07 167.239C135.573 167.156 135.177 166.891 134.883 166.445C134.621 165.975 134.552 165.367 134.677 164.622C134.807 163.848 135.344 162.76 136.288 161.357C137.265 159.93 138.555 158.244 140.158 156.298C141.794 154.329 143.224 152.652 144.449 151.267C146.955 148.337 148.561 146.292 149.266 145.132L144.123 144.059L137.37 143.184C136.929 143.11 136.551 142.905 136.238 142.569C135.958 142.21 135.859 141.781 135.942 141.284C136.026 140.787 136.256 140.428 136.634 140.208C137.043 139.964 137.469 139.879 137.911 139.953C137.911 139.953 140.134 140.41 144.58 141.325Z" fill="#EA2222"/>
</g>
<defs>
<filter id="filter0_d_5_61" x="0.965302" y="0.965302" width="389.377" height="376.308" filterUnits="userSpaceOnUse" color-interpolation-filters="sRGB">
<feFlood flood-opacity="0" result="BackgroundImageFix"/>
<feColorMatrix in="SourceAlpha" type="matrix" values="0 0 0 0 0 0 0 0 0 0 0 0 0 0 0 0 0 0 127 0" result="hardAlpha"/>
<feOffset dx="10" dy="-3"/>
<feGaussianBlur stdDeviation="10.5"/>
<feComposite in2="hardAlpha" operator="out"/>
<feColorMatrix type="matrix" values="0 0 0 0 0 0 0 0 0 0 0 0 0 0 0 0 0 0 0.25 0"/>
<feBlend mode="normal" in2="BackgroundImageFix" result="effect1_dropShadow_5_61"/>
<feBlend mode="normal" in="SourceGraphic" in2="effect1_dropShadow_5_61" result="shape"/>
</filter>
</defs>
</svg>
